<?xml version="1.0" encoding="UTF-8"?>
<svg width="32" height="32" viewBox="0 0 32 32" xmlns="http://www.w3.org/2000/svg">
    <!-- Background circle -->
    <circle cx="16" cy="16" r="16" fill="#E67E22"/>
    <!-- Stylized B -->
    <path d="M10 8h8c2.2 0 4 1.8 4 4 0 1.3-.6 2.4-1.6 3.2 1.3.7 2.2 2 2.2 3.5 0 2.2-1.8 4-4 4h-8.6V8zm3.5 5.5h4.5c.3 0 .5-.2.5-.5s-.2-.5-.5-.5h-4.5v1zm0 3h5c.3 0 .5-.2.5-.5s-.2-.5-.5-.5h-5v1zm0 3h4.5c.3 0 .5-.2.5-.5s-.2-.5-.5-.5h-4.5v1z" 
          fill="white"/>
</svg> 